# xmcd
#
# Track frame offsets:
#	150
#	11965
#	24016
#	34486
#	46395
#	57211
#	70878
#	81753
#	94496
#	103298
#	113503
#	129236
#	142652
#	155121
#	166002
#	175746
#	188503
#	199367
#	209325
#	221195
#
# Disc length: 3108 seconds
#
# Revision: 0
# Processed by: cddbd v1.5.2PL0 Copyright (c) Steve Scherf et al.
# Submitted via: dBpowerAMP V4.0
#
DISCID=180c2214
DTITLE=Various Artist - Country Outlaws - CD3
DYEAR=1900
DGENRE=Country
TTITLE0=Ernest Tubb - Walking the floor over you
TTITLE1=Bill Monroe and His Bluegrass Boys - A lonesome road
TTITLE2=Reno and Smiley - I'm gone long gone
TTITLE3=Hank Williams - Long gone lonesome blues
TTITLE4=Townes Van Zandt - Waitin' around to die
TTITLE5=George Jones - Life to go
TTITLE6=David Allan Coe - West Virginia man
TTITLE7=Willie Nelson - I just don't understand
TTITLE8=Carl Perkins - Honky tonk gal
TTITLE9=Naddox Brothers and Rose - Sally let your bangs hang down
TTITLE10=The Flatlanders - Jole blon
TTITLE11=Jerry Lee Lewis - The ballad of Billy Joe
TTITLE12=Jimmie Rodgers - Waiting for a train
TTITLE13=Sir Douglas Quintet - Is anybody going to San Antone
TTITLE14=Jerry Lee Lewis - I'll sail my ship alone
TTITLE15=Malcom Yelvington - Drinkin' wine spo-dee-o-dee
TTITLE16=Webb Pierce - There stands the glass
TTITLE17=Hank Snow and His Rainbow Ranch Boys - Down the trail of achin' hearts
TTITLE18=Waylon Jennings - Crying
TTITLE19=Johnny Cash - Goodnight Irene
EXTD=
EXTT0=
EXTT1=
EXTT2=
EXTT3=
EXTT4=
EXTT5=
EXTT6=
EXTT7=
EXTT8=
EXTT9=
EXTT10=
EXTT11=
EXTT12=
EXTT13=
EXTT14=
EXTT15=
EXTT16=
EXTT17=
EXTT18=
EXTT19=
PLAYORDER=
